<?xml version="1.0" standalone="no"?>
<svg xmlns:xlink="http://www.w3.org/1999/xlink" id="wave" style="transform:rotate(0deg); transition: 0.3s" viewBox="0 0 1440 490" version="1.1" xmlns="http://www.w3.org/2000/svg"><defs><linearGradient id="sw-gradient-0" x1="0" x2="0" y1="1" y2="0"><stop stop-color="rgba(61, 230, 175, 1)" offset="0%"/><stop stop-color="rgba(61, 230, 175, 1)" offset="100%"/></linearGradient></defs><path style="transform:translate(0, 0px); opacity:1" fill="url(#sw-gradient-0)" d="M0,49L80,114.3C160,180,320,310,480,334.8C640,359,800,278,960,269.5C1120,261,1280,327,1440,343C1600,359,1760,327,1920,318.5C2080,310,2240,327,2400,334.8C2560,343,2720,343,2880,334.8C3040,327,3200,310,3360,285.8C3520,261,3680,229,3840,236.8C4000,245,4160,294,4320,334.8C4480,376,4640,408,4800,367.5C4960,327,5120,212,5280,212.3C5440,212,5600,327,5760,367.5C5920,408,6080,376,6240,351.2C6400,327,6560,310,6720,261.3C6880,212,7040,131,7200,98C7360,65,7520,82,7680,89.8C7840,98,8000,98,8160,147C8320,196,8480,294,8640,310.3C8800,327,8960,261,9120,204.2C9280,147,9440,98,9600,98C9760,98,9920,147,10080,147C10240,147,10400,98,10560,89.8C10720,82,10880,114,11040,171.5C11200,229,11360,310,11440,351.2L11520,392L11520,490L11440,490C11360,490,11200,490,11040,490C10880,490,10720,490,10560,490C10400,490,10240,490,10080,490C9920,490,9760,490,9600,490C9440,490,9280,490,9120,490C8960,490,8800,490,8640,490C8480,490,8320,490,8160,490C8000,490,7840,490,7680,490C7520,490,7360,490,7200,490C7040,490,6880,490,6720,490C6560,490,6400,490,6240,490C6080,490,5920,490,5760,490C5600,490,5440,490,5280,490C5120,490,4960,490,4800,490C4640,490,4480,490,4320,490C4160,490,4000,490,3840,490C3680,490,3520,490,3360,490C3200,490,3040,490,2880,490C2720,490,2560,490,2400,490C2240,490,2080,490,1920,490C1760,490,1600,490,1440,490C1280,490,1120,490,960,490C800,490,640,490,480,490C320,490,160,490,80,490L0,490Z"/></svg>